<?xml version="1.0" standalone="no"?>
<!DOCTYPE svg PUBLIC "-//W3C//DTD SVG 20010904//EN"
 "http://www.w3.org/TR/2001/REC-SVG-20010904/DTD/svg10.dtd">
<svg version="1.0" xmlns="http://www.w3.org/2000/svg"
 width="171.000000pt" height="171.000000pt" viewBox="0 0 171.000000 171.000000"
 preserveAspectRatio="xMidYMid meet">
<metadata>
Created by potrace 1.11, written by Peter Selinger 2001-2013
</metadata>
<g transform="translate(0.000000,171.000000) scale(0.100000,-0.100000)"
fill="#000000" stroke="none">
<path d="M16 1412 c-2 -4 16 -21 42 -37 58 -36 56 -34 144 -185 40 -69 78
-131 85 -138 7 -7 13 -17 13 -22 0 -5 31 -40 69 -79 123 -123 232 -155 397
-116 29 7 32 4 83 -79 29 -47 55 -86 59 -86 3 0 30 23 59 52 l52 52 45 -23
c35 -17 60 -22 112 -20 125 4 224 71 362 244 51 64 80 91 115 104 15 6 27 15
27 21 0 11 -299 7 -367 -5 -132 -24 -254 -82 -286 -137 -28 -50 -19 -53 28 -9
66 61 159 98 295 117 51 8 163 5 172 -4 24 -24 -135 -204 -223 -255 -60 -35
-132 -49 -178 -34 -61 21 -47 55 52 121 21 14 42 26 47 26 5 0 12 5 15 10 9
15 -42 5 -62 -12 -9 -7 -19 -12 -22 -12 -11 3 -86 -39 -94 -52 -4 -8 -14 -14
-20 -14 -7 0 -20 -8 -28 -17 -25 -28 -78 -73 -86 -73 -5 0 -16 21 -27 46 -21
52 -162 202 -236 251 -56 38 -130 76 -136 70 -3 -2 12 -17 33 -33 67 -50 163
-152 163 -171 0 -36 -16 -46 -74 -46 -106 0 -215 78 -309 220 -46 69 -117 201
-117 217 0 10 131 0 174 -14 17 -5 56 -17 86 -26 77 -23 197 -87 247 -132 23
-20 58 -63 76 -94 41 -69 56 -52 25 30 -43 116 -223 223 -473 281 -136 32
-179 41 -215 47 -19 2 -50 7 -69 10 -19 2 -37 7 -42 9 -4 3 -10 2 -13 -3z"/>
<path d="M559 735 c-5 0 -7 -44 -3 -57 4 -14 17 -18 60 -18 l54 0 0 35 c0 21
-5 36 -12 36 -9 1 -83 4 -99 4z"/>
<path d="M70 515 c0 -165 3 -215 13 -216 58 -5 249 -3 277 4 80 19 113 56 108
126 -2 45 -15 65 -51 84 l-27 14 25 27 c32 35 38 60 26 129 0 4 -16 16 -33 27
-29 18 -51 20 -185 20 l-153 0 0 -215z m238 123 c18 -18 14 -56 -7 -68 -11 -5
-35 -10 -54 -10 -32 0 -35 3 -39 34 -2 19 -2 39 0 45 5 15 85 14 100 -1z m23
-177 c21 -26 14 -58 -15 -68 -32 -11 -97 -10 -104 2 -13 19 -8 80 7 86 31 12
96 1 112 -20z"/>
<path d="M558 608 c-6 -31 -3 -295 3 -304 8 -10 96 -10 106 -1 6 7 4 299 -3
306 -8 9 -104 8 -106 -1z"/>
<path d="M821 591 c-72 -47 -97 -130 -60 -207 34 -73 153 -113 234 -80 19 8
35 13 35 10 0 -8 39 35 51 58 19 36 28 97 18 132 -29 102 -180 150 -278 87z
m136 -59 c35 -22 38 -123 5 -149 -24 -18 -67 -16 -83 4 -8 9 -14 39 -14 70 0
43 4 58 19 69 22 15 54 18 73 6z"/>
</g>
</svg>
